<mxfile host="app.diagrams.net" modified="2022-04-21T15:11:26.663Z" agent="5.0 (Macintosh; Intel Mac OS X 10_15_7) AppleWebKit/605.1.15 (KHTML, like Gecko) Version/15.4 Safari/605.1.15" etag="Zpoi5QnK42GkjmWjJIwd" version="17.4.6" type="github">
  <diagram id="hpOC_d_NLCw_dS5nYjAL" name="第 1 页">
    <mxGraphModel dx="788" dy="561" grid="1" gridSize="10" guides="1" tooltips="1" connect="1" arrows="1" fold="1" page="1" pageScale="1" pageWidth="3300" pageHeight="4681" math="0" shadow="0">
      <root>
        <mxCell id="0" />
        <mxCell id="1" parent="0" />
        <mxCell id="Dbwr2pfX_zY2jN6Wx3DT-2" value="ptr" style="rounded=0;whiteSpace=wrap;html=1;" vertex="1" parent="1">
          <mxGeometry x="180" y="210" width="170" height="40" as="geometry" />
        </mxCell>
        <mxCell id="Dbwr2pfX_zY2jN6Wx3DT-3" value="" style="rounded=0;whiteSpace=wrap;html=1;" vertex="1" parent="1">
          <mxGeometry x="180" y="250" width="170" height="40" as="geometry" />
        </mxCell>
        <mxCell id="Dbwr2pfX_zY2jN6Wx3DT-4" value="" style="endArrow=classic;html=1;rounded=0;entryX=0;entryY=0;entryDx=0;entryDy=0;" edge="1" parent="1" target="Dbwr2pfX_zY2jN6Wx3DT-2">
          <mxGeometry width="50" height="50" relative="1" as="geometry">
            <mxPoint x="100" y="210" as="sourcePoint" />
            <mxPoint x="110" y="240" as="targetPoint" />
          </mxGeometry>
        </mxCell>
        <mxCell id="Dbwr2pfX_zY2jN6Wx3DT-5" value="fake thunk &lt;span style=&quot;white-space: pre&quot;&gt;P&lt;/span&gt;" style="text;html=1;strokeColor=none;fillColor=none;align=center;verticalAlign=middle;whiteSpace=wrap;rounded=0;" vertex="1" parent="1">
          <mxGeometry x="20" y="196" width="70" height="30" as="geometry" />
        </mxCell>
        <mxCell id="Dbwr2pfX_zY2jN6Wx3DT-6" value="" style="rounded=0;whiteSpace=wrap;html=1;" vertex="1" parent="1">
          <mxGeometry x="180" y="170" width="170" height="40" as="geometry" />
        </mxCell>
        <mxCell id="Dbwr2pfX_zY2jN6Wx3DT-7" value="ptr-0x10" style="rounded=0;whiteSpace=wrap;html=1;" vertex="1" parent="1">
          <mxGeometry x="180" y="130" width="170" height="40" as="geometry" />
        </mxCell>
        <mxCell id="Dbwr2pfX_zY2jN6Wx3DT-8" value="thunk 0" style="text;html=1;strokeColor=none;fillColor=none;align=center;verticalAlign=middle;whiteSpace=wrap;rounded=0;" vertex="1" parent="1">
          <mxGeometry x="20" y="116" width="70" height="30" as="geometry" />
        </mxCell>
        <mxCell id="Dbwr2pfX_zY2jN6Wx3DT-9" value="" style="endArrow=classic;html=1;rounded=0;entryX=0;entryY=0;entryDx=0;entryDy=0;" edge="1" parent="1">
          <mxGeometry width="50" height="50" relative="1" as="geometry">
            <mxPoint x="100" y="130" as="sourcePoint" />
            <mxPoint x="180" y="130" as="targetPoint" />
          </mxGeometry>
        </mxCell>
        <mxCell id="Dbwr2pfX_zY2jN6Wx3DT-17" style="edgeStyle=orthogonalEdgeStyle;rounded=0;orthogonalLoop=1;jettySize=auto;html=1;exitX=1;exitY=0.5;exitDx=0;exitDy=0;entryX=1;entryY=1;entryDx=0;entryDy=0;" edge="1" parent="1" source="Dbwr2pfX_zY2jN6Wx3DT-10" target="Dbwr2pfX_zY2jN6Wx3DT-13">
          <mxGeometry relative="1" as="geometry">
            <Array as="points">
              <mxPoint x="370" y="310" />
              <mxPoint x="370" y="90" />
            </Array>
          </mxGeometry>
        </mxCell>
        <mxCell id="Dbwr2pfX_zY2jN6Wx3DT-10" value="fd" style="rounded=0;whiteSpace=wrap;html=1;" vertex="1" parent="1">
          <mxGeometry x="180" y="290" width="170" height="40" as="geometry" />
        </mxCell>
        <mxCell id="Dbwr2pfX_zY2jN6Wx3DT-18" style="edgeStyle=orthogonalEdgeStyle;rounded=0;orthogonalLoop=1;jettySize=auto;html=1;exitX=1;exitY=0.5;exitDx=0;exitDy=0;entryX=1;entryY=1;entryDx=0;entryDy=0;" edge="1" parent="1" source="Dbwr2pfX_zY2jN6Wx3DT-11" target="Dbwr2pfX_zY2jN6Wx3DT-12">
          <mxGeometry relative="1" as="geometry">
            <Array as="points">
              <mxPoint x="380" y="350" />
              <mxPoint x="380" y="130" />
            </Array>
          </mxGeometry>
        </mxCell>
        <mxCell id="Dbwr2pfX_zY2jN6Wx3DT-11" value="bk" style="rounded=0;whiteSpace=wrap;html=1;" vertex="1" parent="1">
          <mxGeometry x="180" y="330" width="170" height="40" as="geometry" />
        </mxCell>
        <mxCell id="Dbwr2pfX_zY2jN6Wx3DT-12" value="ptr-018" style="rounded=0;whiteSpace=wrap;html=1;" vertex="1" parent="1">
          <mxGeometry x="180" y="90" width="170" height="40" as="geometry" />
        </mxCell>
        <mxCell id="Dbwr2pfX_zY2jN6Wx3DT-13" value="" style="rounded=0;whiteSpace=wrap;html=1;" vertex="1" parent="1">
          <mxGeometry x="180" y="50" width="170" height="40" as="geometry" />
        </mxCell>
        <mxCell id="Dbwr2pfX_zY2jN6Wx3DT-14" value="" style="rounded=0;whiteSpace=wrap;html=1;" vertex="1" parent="1">
          <mxGeometry x="180" y="10" width="170" height="40" as="geometry" />
        </mxCell>
        <mxCell id="Dbwr2pfX_zY2jN6Wx3DT-21" value="chunk0" style="text;whiteSpace=wrap;html=1;" vertex="1" parent="1">
          <mxGeometry x="100" y="560" width="80" height="30" as="geometry" />
        </mxCell>
        <mxCell id="Dbwr2pfX_zY2jN6Wx3DT-25" value="" style="rounded=0;whiteSpace=wrap;html=1;" vertex="1" parent="1">
          <mxGeometry x="180" y="680" width="170" height="40" as="geometry" />
        </mxCell>
        <mxCell id="Dbwr2pfX_zY2jN6Wx3DT-26" value="········" style="rounded=0;whiteSpace=wrap;html=1;" vertex="1" parent="1">
          <mxGeometry x="180" y="800" width="170" height="40" as="geometry" />
        </mxCell>
        <mxCell id="Dbwr2pfX_zY2jN6Wx3DT-27" value="" style="rounded=0;whiteSpace=wrap;html=1;" vertex="1" parent="1">
          <mxGeometry x="180" y="720" width="170" height="40" as="geometry" />
        </mxCell>
        <mxCell id="Dbwr2pfX_zY2jN6Wx3DT-32" value="chunk1" style="text;whiteSpace=wrap;html=1;" vertex="1" parent="1">
          <mxGeometry x="100" y="840" width="80" height="30" as="geometry" />
        </mxCell>
        <mxCell id="Dbwr2pfX_zY2jN6Wx3DT-34" value="size(0x91)" style="rounded=0;whiteSpace=wrap;html=1;" vertex="1" parent="1">
          <mxGeometry x="180" y="880" width="170" height="40" as="geometry" />
        </mxCell>
        <mxCell id="Dbwr2pfX_zY2jN6Wx3DT-35" value="prev(0x90)" style="rounded=0;whiteSpace=wrap;html=1;" vertex="1" parent="1">
          <mxGeometry x="180" y="840" width="170" height="40" as="geometry" />
        </mxCell>
        <mxCell id="Dbwr2pfX_zY2jN6Wx3DT-37" value="········" style="rounded=0;whiteSpace=wrap;html=1;" vertex="1" parent="1">
          <mxGeometry x="180" y="920" width="170" height="40" as="geometry" />
        </mxCell>
        <mxCell id="Dbwr2pfX_zY2jN6Wx3DT-42" value="prev(0x0)" style="rounded=0;whiteSpace=wrap;html=1;" vertex="1" parent="1">
          <mxGeometry x="180" y="560" width="170" height="40" as="geometry" />
        </mxCell>
        <mxCell id="Dbwr2pfX_zY2jN6Wx3DT-43" value="size(0x91)" style="rounded=0;whiteSpace=wrap;html=1;" vertex="1" parent="1">
          <mxGeometry x="180" y="600" width="170" height="40" as="geometry" />
        </mxCell>
        <mxCell id="Dbwr2pfX_zY2jN6Wx3DT-44" value="" style="rounded=0;whiteSpace=wrap;html=1;" vertex="1" parent="1">
          <mxGeometry x="180" y="640" width="170" height="40" as="geometry" />
        </mxCell>
        <mxCell id="Dbwr2pfX_zY2jN6Wx3DT-45" value="" style="rounded=0;whiteSpace=wrap;html=1;" vertex="1" parent="1">
          <mxGeometry x="180" y="760" width="170" height="40" as="geometry" />
        </mxCell>
        <mxCell id="Dbwr2pfX_zY2jN6Wx3DT-48" value="" style="rounded=0;whiteSpace=wrap;html=1;" vertex="1" parent="1">
          <mxGeometry x="530" y="680" width="170" height="40" as="geometry" />
        </mxCell>
        <mxCell id="Dbwr2pfX_zY2jN6Wx3DT-49" value="········" style="rounded=0;whiteSpace=wrap;html=1;" vertex="1" parent="1">
          <mxGeometry x="530" y="800" width="170" height="40" as="geometry" />
        </mxCell>
        <mxCell id="Dbwr2pfX_zY2jN6Wx3DT-50" value="fd P&lt;span style=&quot;text-align: left&quot;&gt;-0x18&lt;/span&gt;" style="rounded=0;whiteSpace=wrap;html=1;" vertex="1" parent="1">
          <mxGeometry x="530" y="720" width="170" height="40" as="geometry" />
        </mxCell>
        <mxCell id="Dbwr2pfX_zY2jN6Wx3DT-51" value="chunk1" style="text;whiteSpace=wrap;html=1;" vertex="1" parent="1">
          <mxGeometry x="450" y="840" width="80" height="30" as="geometry" />
        </mxCell>
        <mxCell id="Dbwr2pfX_zY2jN6Wx3DT-53" value="size(0x90)" style="rounded=0;whiteSpace=wrap;html=1;" vertex="1" parent="1">
          <mxGeometry x="530" y="880" width="170" height="40" as="geometry" />
        </mxCell>
        <mxCell id="Dbwr2pfX_zY2jN6Wx3DT-54" value="prev(0x80)" style="rounded=0;whiteSpace=wrap;html=1;" vertex="1" parent="1">
          <mxGeometry x="530" y="840" width="170" height="40" as="geometry" />
        </mxCell>
        <mxCell id="Dbwr2pfX_zY2jN6Wx3DT-56" value="········" style="rounded=0;whiteSpace=wrap;html=1;" vertex="1" parent="1">
          <mxGeometry x="530" y="920" width="170" height="40" as="geometry" />
        </mxCell>
        <mxCell id="Dbwr2pfX_zY2jN6Wx3DT-58" value="prev(0x0)" style="rounded=0;whiteSpace=wrap;html=1;" vertex="1" parent="1">
          <mxGeometry x="530" y="560" width="170" height="40" as="geometry" />
        </mxCell>
        <mxCell id="Dbwr2pfX_zY2jN6Wx3DT-59" value="size(0x91)" style="rounded=0;whiteSpace=wrap;html=1;" vertex="1" parent="1">
          <mxGeometry x="530" y="600" width="170" height="40" as="geometry" />
        </mxCell>
        <mxCell id="Dbwr2pfX_zY2jN6Wx3DT-60" value="" style="rounded=0;whiteSpace=wrap;html=1;" vertex="1" parent="1">
          <mxGeometry x="530" y="640" width="170" height="40" as="geometry" />
        </mxCell>
        <mxCell id="Dbwr2pfX_zY2jN6Wx3DT-61" value="bk P&lt;span style=&quot;text-align: left&quot;&gt;-0x10&lt;/span&gt;" style="rounded=0;whiteSpace=wrap;html=1;" vertex="1" parent="1">
          <mxGeometry x="530" y="760" width="170" height="40" as="geometry" />
        </mxCell>
        <mxCell id="Dbwr2pfX_zY2jN6Wx3DT-63" value="fake chunk" style="text;whiteSpace=wrap;html=1;" vertex="1" parent="1">
          <mxGeometry x="450" y="640" width="80" height="30" as="geometry" />
        </mxCell>
        <mxCell id="Dbwr2pfX_zY2jN6Wx3DT-76" value="FD" style="text;whiteSpace=wrap;html=1;" vertex="1" parent="1">
          <mxGeometry x="460" y="725" width="20" height="30" as="geometry" />
        </mxCell>
        <mxCell id="Dbwr2pfX_zY2jN6Wx3DT-80" value="BK" style="text;whiteSpace=wrap;html=1;" vertex="1" parent="1">
          <mxGeometry x="460" y="770" width="20" height="30" as="geometry" />
        </mxCell>
        <mxCell id="Dbwr2pfX_zY2jN6Wx3DT-84" style="edgeStyle=orthogonalEdgeStyle;rounded=0;orthogonalLoop=1;jettySize=auto;html=1;entryX=0;entryY=0.5;entryDx=0;entryDy=0;" edge="1" parent="1" source="Dbwr2pfX_zY2jN6Wx3DT-81" target="Dbwr2pfX_zY2jN6Wx3DT-21">
          <mxGeometry relative="1" as="geometry" />
        </mxCell>
        <mxCell id="Dbwr2pfX_zY2jN6Wx3DT-81" value="P" style="text;whiteSpace=wrap;html=1;" vertex="1" parent="1">
          <mxGeometry x="60" y="560" width="10" height="30" as="geometry" />
        </mxCell>
        <mxCell id="Dbwr2pfX_zY2jN6Wx3DT-85" value="chunk0" style="text;whiteSpace=wrap;html=1;" vertex="1" parent="1">
          <mxGeometry x="450" y="560" width="80" height="30" as="geometry" />
        </mxCell>
        <mxCell id="Dbwr2pfX_zY2jN6Wx3DT-86" style="edgeStyle=orthogonalEdgeStyle;rounded=0;orthogonalLoop=1;jettySize=auto;html=1;entryX=0;entryY=0.5;entryDx=0;entryDy=0;" edge="1" parent="1" source="Dbwr2pfX_zY2jN6Wx3DT-87" target="Dbwr2pfX_zY2jN6Wx3DT-85">
          <mxGeometry relative="1" as="geometry" />
        </mxCell>
        <mxCell id="Dbwr2pfX_zY2jN6Wx3DT-87" value="P" style="text;whiteSpace=wrap;html=1;" vertex="1" parent="1">
          <mxGeometry x="410" y="560" width="10" height="30" as="geometry" />
        </mxCell>
      </root>
    </mxGraphModel>
  </diagram>
</mxfile>
